<?xml version="1.0" encoding="UTF-8" standalone="no"?>
<!-- Created with Inkscape (http://www.inkscape.org/) -->

<svg
   xmlns:dc="http://purl.org/dc/elements/1.1/"
   xmlns:cc="http://creativecommons.org/ns#"
   xmlns:rdf="http://www.w3.org/1999/02/22-rdf-syntax-ns#"
   xmlns:svg="http://www.w3.org/2000/svg"
   xmlns="http://www.w3.org/2000/svg"
   xmlns:xlink="http://www.w3.org/1999/xlink"
   xmlns:sodipodi="http://sodipodi.sourceforge.net/DTD/sodipodi-0.dtd"
   xmlns:inkscape="http://www.inkscape.org/namespaces/inkscape"
   width="744.09448819"
   height="1052.3622047"
   id="svg2"
   version="1.1"
   inkscape:version="0.47 r22583"
   sodipodi:docname="shirt-draft-1.svg"
   inkscape:export-filename="/home/immanuel/dev/cream/art/merchandising/tshirt/shirt-draft-4.png"
   inkscape:export-xdpi="72.571426"
   inkscape:export-ydpi="72.571426">
  <defs
     id="defs4">
    <inkscape:perspective
       sodipodi:type="inkscape:persp3d"
       inkscape:vp_x="0 : 526.18109 : 1"
       inkscape:vp_y="0 : 1000 : 0"
       inkscape:vp_z="744.09448 : 526.18109 : 1"
       inkscape:persp3d-origin="372.04724 : 350.78739 : 1"
       id="perspective10" />
    <inkscape:perspective
       id="perspective2824"
       inkscape:persp3d-origin="0.5 : 0.33333333 : 1"
       inkscape:vp_z="1 : 0.5 : 1"
       inkscape:vp_y="0 : 1000 : 0"
       inkscape:vp_x="0 : 0.5 : 1"
       sodipodi:type="inkscape:persp3d" />
    <inkscape:perspective
       sodipodi:type="inkscape:persp3d"
       inkscape:vp_x="0 : 0.5 : 1"
       inkscape:vp_y="0 : 1000 : 0"
       inkscape:vp_z="1 : 0.5 : 1"
       inkscape:persp3d-origin="0.5 : 0.33333333 : 1"
       id="perspective2849" />
    <inkscape:perspective
       id="perspective19"
       inkscape:persp3d-origin="128 : 85.333333 : 1"
       inkscape:vp_z="256 : 128 : 1"
       inkscape:vp_y="0 : 1000 : 0"
       inkscape:vp_x="0 : 128 : 1"
       sodipodi:type="inkscape:persp3d" />
  </defs>
  <sodipodi:namedview
     id="base"
     pagecolor="#ffffff"
     bordercolor="#666666"
     borderopacity="1.0"
     inkscape:pageopacity="0.0"
     inkscape:pageshadow="2"
     inkscape:zoom="0.98994949"
     inkscape:cx="405.67987"
     inkscape:cy="586.19876"
     inkscape:document-units="px"
     inkscape:current-layer="g3406"
     showgrid="false"
     inkscape:window-width="1024"
     inkscape:window-height="696"
     inkscape:window-x="0"
     inkscape:window-y="24"
     inkscape:window-maximized="1" />
  <metadata
     id="metadata7">
    <rdf:RDF>
      <cc:Work
         rdf:about="">
        <dc:format>image/svg+xml</dc:format>
        <dc:type
           rdf:resource="http://purl.org/dc/dcmitype/StillImage" />
        <dc:title></dc:title>
      </cc:Work>
    </rdf:RDF>
  </metadata>
  <g
     inkscape:label="Layer 1"
     inkscape:groupmode="layer"
     id="layer1">
    <image
       xlink:href="file:///home/immanuel/dev/cream/art/merchandising/tshirt/shirt-mono-1.png"
       width="500"
       height="635"
       id="image2838"
       x="-978.8009"
       y="222.00505" />
    <image
       y="222.00505"
       x="124.28569"
       id="image2826"
       height="635"
       width="500"
       xlink:href="file:///home/immanuel/dev/cream/art/merchandising/tshirt/shirt-mono-1.png" />
    <g
       id="layer1-4"
       inkscape:label="Layer 1"
       transform="translate(313.61857,352.20818)">
      <g
         id="g3331"
         transform="translate(5.7142857,5.7142857)">
        <g
           id="g2536">
          <g
             transform="translate(1528.4185,0.00931257)"
             id="g3711">
            <g
               inkscape:transform-center-x="24.748737"
               id="g2505"
               style="fill:#ffffff;stroke:#ffffff"
               transform="translate(-2411.2341,89.095454)">
              <g
                 id="g3406"
                 transform="matrix(1.0047981,0,0,1.0033516,5.558848,-0.08727405)"
                 style="fill:#ffffff;stroke:#ffffff">
                <rect
                   style="fill:#785f42;fill-opacity:1;stroke:none"
                   id="rect2885"
                   width="89.570236"
                   height="92.546959"
                   x="941.26477"
                   y="-60.802551"
                   ry="11.117493" />
                <text
                   xml:space="preserve"
                   style="font-size:15.39316463px;font-style:normal;font-weight:normal;fill:#ffffff;fill-opacity:1;stroke:none;font-family:Bitstream Vera Sans"
                   x="866.83655"
                   y="8.8451176"
                   id="text2887"
                   transform="scale(0.99927992,1.0007206)"><tspan
                     sodipodi:role="line"
                     id="tspan2889"
                     x="866.83655"
                     y="8.8451176"
                     style="font-style:normal;font-variant:normal;font-weight:bold;font-stretch:normal;fill:#ffffff;font-family:GeosansLight;-inkscape-font-specification:GeosansLight Medium"><tspan
   style="font-size:13.94318676px;fill:#ffffff"
   id="tspan2830">C</tspan>ream <tspan
   style="font-size:13.94318676px;fill:#ffffff"
   id="tspan2834">D</tspan>esktop <tspan
   style="font-size:13.94318676px;fill:#ffffff"
   id="tspan2836">E</tspan>nvironment</tspan></text>
                <g
                   inkscape:export-ydpi="97.826088"
                   inkscape:export-xdpi="97.826088"
                   transform="matrix(0.12564997,0,0,0.12564997,824.98691,-10.362632)"
                   id="g2851">
                  <g
                     transform="matrix(0.99522481,0,0,0.9966596,2394.1877,-88.710857)"
                     id="g2844">
                    <g
                       id="g2841">
                      <path
                         transform="matrix(0.9015099,0,0,0.9015099,-2398.6274,103.16714)"
                         d="m 128,6.125 c -66.183096,0 -120.2500011,54.066884 -120.25,120.25 0,66.18311 54.06691,120.24999 120.25,120.25 66.1831,0 120.25,-54.0669 120.25,-120.25 C 248.25,60.191888 194.18311,6.1249989 128,6.125 z m 0,30.03125 c 49.86766,-10e-7 90.21875,40.351073 90.21875,90.21875 0,49.86766 -40.35108,90.21875 -90.21875,90.21875 C 78.132337,216.59374 37.78125,176.24266 37.78125,126.375 37.781249,76.50732 78.132342,36.15625 128,36.15625 z"
                         id="path3709"
                         style="fill:none;stroke:#ffffff;stroke-width:3.32775044;stroke-linecap:round;stroke-linejoin:round;stroke-miterlimit:4;stroke-opacity:1;stroke-dasharray:none;stroke-dashoffset:0;marker:none;visibility:visible;display:inline;overflow:visible"
                         inkscape:original="M 128 2.96875 C 60.095931 2.96875 4.5937489 58.470911 4.59375 126.375 C 4.59375 194.27908 60.095937 249.78124 128 249.78125 C 195.90407 249.78125 251.40625 194.27907 251.40625 126.375 C 251.40625 58.470915 195.90408 2.9687489 128 2.96875 z M 128 39.3125 C 176.16746 39.312499 215.0625 78.207524 215.0625 126.375 C 215.0625 174.54246 176.16747 213.4375 128 213.4375 C 79.832538 213.43749 40.9375 174.54246 40.9375 126.375 C 40.937499 78.207521 79.832543 39.3125 128 39.3125 z "
                         inkscape:radius="-3.1582844"
                         sodipodi:type="inkscape:offset" />
                    </g>
                  </g>
                  <path
                     sodipodi:type="inkscape:offset"
                     inkscape:radius="-2.7828357"
                     inkscape:original="M 123.3125 16.78125 C 103.93127 16.556807 84.51823 21.576583 66.75 31.8125 C 13.893111 62.262295 -4.3551141 130.30096 26.09375 183.15625 C 56.429177 235.81463 123.98065 254.09825 176.75 224.125 C 178.25303 223.27421 179.35606 221.85321 179.8125 220.1875 C 180.26894 218.52178 180.04687 216.74814 179.1875 215.25 L 169.53125 198.4375 C 167.76068 195.34436 163.82518 193.87784 160.71875 195.625 C 123.04387 216.8335 75.352853 203.92272 54.09375 166.9375 C 32.432528 129.2527 44.969344 80.993225 82.96875 59.875 C 108.77 45.535922 136.4546 46.137664 162.125 60.4375 C 162.45664 60.636666 162.82574 60.831724 163.1875 60.96875 C 163.96013 61.281391 164.79151 61.437262 165.625 61.4375 L 165.65625 61.4375 C 167.92872 61.4407 170.01015 60.256186 171.1875 58.3125 L 181.25 41.6875 C 183.09921 38.617799 182.10131 34.629856 179.03125 32.78125 C 161.64946 22.360367 142.49085 17.003342 123.3125 16.78125 z "
                     style="fill:#ffffff;fill-opacity:1;stroke:#ffffff;stroke-width:2;stroke-linecap:butt;stroke-linejoin:round;stroke-miterlimit:4;stroke-opacity:1;stroke-dashoffset:0"
                     id="path2839"
                     d="M 123.28125,19.5625 C 104.40195,19.34387 85.474532,24.224036 68.125,34.21875 16.581728,63.911797 -1.1931755,130.23774 28.5,181.78125 c 29.582528,51.35144 95.41508,69.16699 146.875,39.9375 0.85496,-0.48395 1.48895,-1.32858 1.75,-2.28125 0.26258,-0.95824 0.14689,-1.95717 -0.34375,-2.8125 L 167.125,199.8125 c -1.07573,-1.87927 -3.38005,-2.67869 -5.03125,-1.75 -38.97038,21.93778 -88.390498,8.55159 -110.40625,-29.75 C 29.283556,129.33556 42.279278,79.303942 81.625,57.4375 108.19396,42.671767 137.08426,43.302376 163.46875,58 a 2.783114,2.783114 0 0 1 0.0937,0.0625 c 0.23787,0.142853 0.49497,0.263248 0.625,0.3125 a 2.783114,2.783114 0 0 1 0.0312,0 c 0.42731,0.172909 0.91918,0.281111 1.40625,0.28125 l 0.0312,0 c 1.30305,0.0018 2.47234,-0.652182 3.15625,-1.78125 L 178.875,40.25 c 1.07116,-1.778126 0.50194,-4.020018 -1.28125,-5.09375 -16.96906,-10.173442 -35.6308,-15.377409 -54.3125,-15.59375 z" />
                </g>
                <rect
                   ry="11.117493"
                   y="-60.802551"
                   x="-155.13264"
                   height="92.546959"
                   width="89.570236"
                   id="rect2840"
                   style="fill:#785f42;fill-opacity:1;stroke:none" />
                <text
                   transform="scale(0.99927992,1.0007206)"
                   id="text2842"
                   y="-9.2557116"
                   x="-272.86884"
                   style="font-size:19.47039604px;font-style:normal;font-weight:normal;fill:#ffffff;fill-opacity:1;stroke:none;font-family:Bitstream Vera Sans"
                   xml:space="preserve"><tspan
                     style="font-style:normal;font-variant:normal;font-weight:bold;font-stretch:normal;fill:#ffffff;font-family:GeosansLight;-inkscape-font-specification:GeosansLight Medium"
                     y="-9.2557116"
                     x="-272.86884"
                     id="tspan2844"
                     sodipodi:role="line"><tspan
   id="tspan2846"
   style="font-size:16.54983711px;fill:#ffffff">C</tspan>ream <tspan
   id="tspan2848"
   style="font-size:16.54983711px;fill:#ffffff">D</tspan>esktop <tspan
   id="tspan2850"
   style="font-size:16.54983711px;fill:#ffffff">E</tspan>nvironment</tspan></text>
                <g
                   id="g2852"
                   transform="matrix(0.28835657,0,0,0.28835657,-212.11877,13.075307)"
                   inkscape:export-xdpi="97.826088"
                   inkscape:export-ydpi="97.826088">
                  <g
                     id="g2854"
                     transform="matrix(0.99522481,0,0,0.9966596,2394.1877,-88.710857)">
                    <g
                       id="g2856">
                      <path
                         sodipodi:type="inkscape:offset"
                         inkscape:radius="-3.1582844"
                         inkscape:original="M 128 2.96875 C 60.095931 2.96875 4.5937489 58.470911 4.59375 126.375 C 4.59375 194.27908 60.095937 249.78124 128 249.78125 C 195.90407 249.78125 251.40625 194.27907 251.40625 126.375 C 251.40625 58.470915 195.90408 2.9687489 128 2.96875 z M 128 39.3125 C 176.16746 39.312499 215.0625 78.207524 215.0625 126.375 C 215.0625 174.54246 176.16747 213.4375 128 213.4375 C 79.832538 213.43749 40.9375 174.54246 40.9375 126.375 C 40.937499 78.207521 79.832543 39.3125 128 39.3125 z "
                         style="fill:none;stroke:#ffffff;stroke-width:3.32775044;stroke-linecap:round;stroke-linejoin:round;stroke-miterlimit:4;stroke-opacity:1;stroke-dasharray:none;stroke-dashoffset:0;marker:none;visibility:visible;display:inline;overflow:visible"
                         id="path2858"
                         d="m 128,6.125 c -66.183096,0 -120.2500011,54.066884 -120.25,120.25 0,66.18311 54.06691,120.24999 120.25,120.25 66.1831,0 120.25,-54.0669 120.25,-120.25 C 248.25,60.191888 194.18311,6.1249989 128,6.125 z m 0,30.03125 c 49.86766,-10e-7 90.21875,40.351073 90.21875,90.21875 0,49.86766 -40.35108,90.21875 -90.21875,90.21875 C 78.132337,216.59374 37.78125,176.24266 37.78125,126.375 37.781249,76.50732 78.132342,36.15625 128,36.15625 z"
                         transform="matrix(0.9015099,0,0,0.9015099,-2398.6274,103.16714)" />
                    </g>
                  </g>
                  <path
                     d="M 123.28125,19.5625 C 104.40195,19.34387 85.474532,24.224036 68.125,34.21875 16.581728,63.911797 -1.1931755,130.23774 28.5,181.78125 c 29.582528,51.35144 95.41508,69.16699 146.875,39.9375 0.85496,-0.48395 1.48895,-1.32858 1.75,-2.28125 0.26258,-0.95824 0.14689,-1.95717 -0.34375,-2.8125 L 167.125,199.8125 c -1.07573,-1.87927 -3.38005,-2.67869 -5.03125,-1.75 -38.97038,21.93778 -88.390498,8.55159 -110.40625,-29.75 C 29.283556,129.33556 42.279278,79.303942 81.625,57.4375 108.19396,42.671767 137.08426,43.302376 163.46875,58 a 2.783114,2.783114 0 0 1 0.0937,0.0625 c 0.23787,0.142853 0.49497,0.263248 0.625,0.3125 a 2.783114,2.783114 0 0 1 0.0312,0 c 0.42731,0.172909 0.91918,0.281111 1.40625,0.28125 l 0.0312,0 c 1.30305,0.0018 2.47234,-0.652182 3.15625,-1.78125 L 178.875,40.25 c 1.07116,-1.778126 0.50194,-4.020018 -1.28125,-5.09375 -16.96906,-10.173442 -35.6308,-15.377409 -54.3125,-15.59375 z"
                     id="path2860"
                     style="fill:#ffffff;fill-opacity:1;stroke:#ffffff;stroke-width:2;stroke-linecap:butt;stroke-linejoin:round;stroke-miterlimit:4;stroke-opacity:1;stroke-dashoffset:0"
                     inkscape:original="M 123.3125 16.78125 C 103.93127 16.556807 84.51823 21.576583 66.75 31.8125 C 13.893111 62.262295 -4.3551141 130.30096 26.09375 183.15625 C 56.429177 235.81463 123.98065 254.09825 176.75 224.125 C 178.25303 223.27421 179.35606 221.85321 179.8125 220.1875 C 180.26894 218.52178 180.04687 216.74814 179.1875 215.25 L 169.53125 198.4375 C 167.76068 195.34436 163.82518 193.87784 160.71875 195.625 C 123.04387 216.8335 75.352853 203.92272 54.09375 166.9375 C 32.432528 129.2527 44.969344 80.993225 82.96875 59.875 C 108.77 45.535922 136.4546 46.137664 162.125 60.4375 C 162.45664 60.636666 162.82574 60.831724 163.1875 60.96875 C 163.96013 61.281391 164.79151 61.437262 165.625 61.4375 L 165.65625 61.4375 C 167.92872 61.4407 170.01015 60.256186 171.1875 58.3125 L 181.25 41.6875 C 183.09921 38.617799 182.10131 34.629856 179.03125 32.78125 C 161.64946 22.360367 142.49085 17.003342 123.3125 16.78125 z "
                     inkscape:radius="-2.7828357"
                     sodipodi:type="inkscape:offset" />
                </g>
              </g>
            </g>
          </g>
        </g>
      </g>
    </g>
  </g>
</svg>
