<?xml version="1.0" encoding="UTF-8" standalone="no"?>
<!-- Created with Inkscape (http://www.inkscape.org/) -->

<svg
   xmlns:dc="http://purl.org/dc/elements/1.1/"
   xmlns:cc="http://creativecommons.org/ns#"
   xmlns:rdf="http://www.w3.org/1999/02/22-rdf-syntax-ns#"
   xmlns:svg="http://www.w3.org/2000/svg"
   xmlns="http://www.w3.org/2000/svg"
   xmlns:sodipodi="http://sodipodi.sourceforge.net/DTD/sodipodi-0.dtd"
   xmlns:inkscape="http://www.inkscape.org/namespaces/inkscape"
   width="680"
   height="100"
   id="svg2932"
   version="1.1"
   inkscape:version="0.47 r22583"
   sodipodi:docname="shirt-wordmark.svg">
  <defs
     id="defs2934" />
  <sodipodi:namedview
     id="base"
     pagecolor="#000000"
     bordercolor="#666666"
     borderopacity="1.0"
     inkscape:pageopacity="0"
     inkscape:pageshadow="2"
     inkscape:zoom="0.49497475"
     inkscape:cx="429.8452"
     inkscape:cy="73.962834"
     inkscape:document-units="px"
     inkscape:current-layer="g2969"
     showgrid="false"
     inkscape:window-width="1024"
     inkscape:window-height="696"
     inkscape:window-x="0"
     inkscape:window-y="24"
     inkscape:window-maximized="1" />
  <metadata
     id="metadata2937">
    <rdf:RDF>
      <cc:Work
         rdf:about="">
        <dc:format>image/svg+xml</dc:format>
        <dc:type
           rdf:resource="http://purl.org/dc/dcmitype/StillImage" />
        <dc:title></dc:title>
      </cc:Work>
    </rdf:RDF>
  </metadata>
  <g
     inkscape:label="Layer 1"
     inkscape:groupmode="layer"
     id="layer1"
     transform="translate(0,-952.36218)">
    <g
       id="g2969"
       transform="translate(-36.285722,665.3274)">
      <g
         style="font-size:46.2675209px;font-style:normal;font-weight:normal;fill:#ffffff;fill-opacity:1;stroke:none;font-family:Bitstream Vera Sans"
         id="text2887">
        <path
           d="m 221.82136,346.1032 0,-2.17457 c -1.78904,1.29549 -3.2696,2.23627 -4.44168,2.82232 -2.0358,0.98704 -4.42628,1.48056 -7.17147,1.48056 -4.41085,0 -8.03513,-1.41887 -10.87286,-4.25661 -2.80691,-2.80689 -4.21035,-6.41575 -4.21035,-10.8266 0,-4.41082 1.41887,-8.0351 4.25661,-10.87287 2.83773,-2.83771 6.4466,-4.25658 10.8266,-4.25661 2.56012,3e-5 5.01229,0.47813 7.35654,1.43429 1.54222,0.64778 2.96109,1.51144 4.25661,2.59098 l 0,-2.35964 c -1.26467,-0.98701 -2.57559,-1.74271 -3.93274,-2.26711 -2.28255,-0.83278 -4.84269,-1.24919 -7.68041,-1.24922 -4.9969,3e-5 -9.08386,1.58855 -12.26089,4.76555 -3.14619,3.14622 -4.71929,7.21776 -4.71929,12.21463 0,4.9969 1.58852,9.08386 4.76556,12.26089 3.14618,3.14619 7.21772,4.71929 12.21462,4.71929 0.43181,0 0.84822,-0.0154 1.24923,-0.0463 0.40096,0 0.7711,-0.0154 1.11042,-0.0463 2.96109,-0.2776 5.30531,-1.04873 7.03266,-2.31337 l 2.22084,-1.61937"
           style="fill:#ffffff"
           id="path3013" />
        <path
           d="m 236.44985,331.80654 c -0.77114,-0.55519 -1.46515,-0.94076 -2.08204,-1.15669 -0.61691,-0.21589 -1.40346,-0.32385 -2.35964,-0.32387 -0.77114,2e-5 -1.48057,0.29304 -2.12831,0.87908 -0.64775,0.58607 -1.17212,1.23382 -1.5731,1.94324 l 0,-2.59098 -1.89696,0 0,19.10848 1.89696,0 0,-12.58476 c 0,-0.49351 0.0925,-1.0333 0.27761,-1.61937 0.21591,-0.58604 0.49351,-1.1104 0.83282,-1.57309 0.33928,-0.49351 0.74027,-0.89449 1.20295,-1.20296 0.46267,-0.33928 0.95619,-0.50892 1.48056,-0.50894 0.61689,2e-5 1.20295,0.10797 1.75817,0.32387 0.5552,0.21593 1.07956,0.50896 1.57309,0.87908 l 1.01789,-1.57309"
           style="font-variant:normal;font-weight:bold;font-stretch:normal;fill:#ffffff;font-family:GeosansLight;-inkscape-font-specification:GeosansLight Medium"
           id="path3015" />
        <path
           d="m 256.34271,339.71829 c -2e-5,-2.80689 -0.94079,-5.08942 -2.82232,-6.8476 -1.85071,-1.75815 -4.19493,-2.63723 -7.03266,-2.63725 -2.86859,2e-5 -5.24366,0.94079 -7.1252,2.82232 -1.8507,1.85072 -2.77605,4.21036 -2.77605,7.07893 0,2.83775 0.94077,5.19739 2.82232,7.07893 1.85069,1.88155 4.21034,2.82232 7.07893,2.82232 1.20294,0 2.28252,-0.15422 3.23873,-0.46267 2.49843,-0.80197 4.34913,-2.34422 5.5521,-4.62676 l -1.7119,-0.78654 c -1.04875,1.69648 -2.23628,2.82232 -3.5626,3.37753 -1.04874,0.43183 -2.22085,0.64774 -3.51633,0.64774 -2.5293,0 -4.5188,-0.77112 -5.96851,-2.31337 -1.38803,-1.51141 -2.08204,-3.5626 -2.08204,-6.15358 l 17.90553,0 m -2.1283,-1.80444 -15.49962,0 c 1.23379,-3.88645 3.82477,-5.82969 7.77294,-5.82971 1.88153,2e-5 3.54716,0.52439 4.99689,1.5731 1.51139,1.07959 2.42132,2.49846 2.72979,4.25661"
           style="font-variant:normal;font-weight:bold;font-stretch:normal;fill:#ffffff;font-family:GeosansLight;-inkscape-font-specification:GeosansLight Medium"
           id="path3017" />
        <path
           d="m 278.70077,349.6658 0,-19.10848 -1.89697,0 0,3.33126 c -2.03579,-2.4059 -4.5805,-3.60885 -7.63414,-3.60887 -2.77606,2e-5 -5.12028,0.95621 -7.03267,2.86859 -1.88154,1.88156 -2.82232,4.21035 -2.82231,6.98639 -1e-5,2.77606 0.95619,5.12028 2.86858,7.03267 1.88154,1.88154 4.21034,2.82231 6.9864,2.82231 3.08448,0 5.6292,-1.20295 7.63414,-3.60886 l 0,3.28499 1.89697,0 m -1.52683,-9.53111 c -2e-5,2.22085 -0.78657,4.11782 -2.35964,5.69091 -1.54227,1.54225 -3.42382,2.31338 -5.64464,2.31337 -2.19001,1e-5 -4.07155,-0.78654 -5.64464,-2.35964 -1.5731,-1.57309 -2.35965,-3.45463 -2.35964,-5.64464 -1e-5,-2.22083 0.78654,-4.11779 2.35964,-5.6909 1.54224,-1.54224 3.42379,-2.31336 5.64464,-2.31338 2.18998,2e-5 4.07152,0.78657 5.64464,2.35965 1.57307,1.5731 2.35962,3.45465 2.35964,5.64463"
           style="font-variant:normal;font-weight:bold;font-stretch:normal;fill:#ffffff;font-family:GeosansLight;-inkscape-font-specification:GeosansLight Medium"
           id="path3019" />
        <path
           d="m 307.97727,349.6658 0,-13.18624 c -3e-5,-1.94322 -0.58609,-3.47005 -1.75817,-4.58049 -1.17213,-1.07955 -2.71438,-1.61934 -4.62675,-1.61936 -2.49847,2e-5 -4.3029,1.00248 -5.4133,3.00739 -1.17213,-2.00491 -2.99198,-3.00737 -5.45957,-3.00739 -2.06662,2e-5 -3.5626,0.72488 -4.48795,2.17457 l 0,-1.89696 -1.89697,0 0,19.10848 1.89697,0 0,-13.18624 c 0,-1.32632 0.43183,-2.37505 1.29549,-3.14619 0.86366,-0.80196 1.92781,-1.20294 3.19246,-1.20296 1.23379,2e-5 2.29794,0.41643 3.19246,1.24922 0.86365,0.77115 1.29548,1.80445 1.29549,3.09993 l 0,13.18624 1.89697,0 0,-13.18624 c -2e-5,-2.89942 1.49596,-4.34913 4.48795,-4.34915 1.44969,2e-5 2.56011,0.43185 3.33126,1.29549 0.7711,0.86368 1.15666,1.88156 1.15669,3.05366 l 0,13.18624 1.89697,0"
           style="font-variant:normal;font-weight:bold;font-stretch:normal;fill:#ffffff;font-family:GeosansLight;-inkscape-font-specification:GeosansLight Medium"
           id="path3021" />
        <path
           d="m 352.13672,333.10203 c -3e-5,-4.5342 -1.31094,-8.35897 -3.93274,-11.47435 -2.77607,-3.33123 -6.38493,-4.99685 -10.8266,-4.99689 l -11.01167,0 0,33.03501 11.01167,0 c 4.47251,0 8.0968,-1.66563 10.87287,-4.99689 2.59095,-3.14618 3.88644,-7.00181 3.88647,-11.56688 m -1.89697,0 c -2e-5,4.53423 -1.34178,8.15851 -4.02527,10.87287 -2.49847,2.52929 -5.44416,3.79394 -8.8371,3.79393 l -9.16097,0 0,-29.28734 9.16097,0 c 3.9173,3e-5 7.07891,1.48059 9.48484,4.44168 2.25166,2.74524 3.37751,6.13818 3.37753,10.17886"
           style="fill:#ffffff"
           id="path3023" />
        <path
           d="m 375.98764,339.71829 c -2e-5,-2.80689 -0.9408,-5.08942 -2.82232,-6.8476 -1.85072,-1.75815 -4.19494,-2.63723 -7.03266,-2.63725 -2.8686,2e-5 -5.24366,0.94079 -7.1252,2.82232 -1.85071,1.85072 -2.77606,4.21036 -2.77605,7.07893 -10e-6,2.83775 0.94077,5.19739 2.82231,7.07893 1.8507,1.88155 4.21034,2.82232 7.07894,2.82232 1.20294,0 2.28251,-0.15422 3.23872,-0.46267 2.49843,-0.80197 4.34913,-2.34422 5.5521,-4.62676 l -1.71189,-0.78654 c -1.04875,1.69648 -2.23628,2.82232 -3.5626,3.37753 -1.04875,0.43183 -2.22086,0.64774 -3.51633,0.64774 -2.5293,0 -4.51881,-0.77112 -5.96852,-2.31337 -1.38802,-1.51141 -2.08204,-3.5626 -2.08203,-6.15358 l 17.90553,0 m -2.12831,-1.80444 -15.49962,0 c 1.2338,-3.88645 3.82478,-5.82969 7.77295,-5.82971 1.88153,2e-5 3.54716,0.52439 4.99689,1.5731 1.51139,1.07959 2.42131,2.49846 2.72978,4.25661"
           style="font-variant:normal;font-weight:bold;font-stretch:normal;fill:#ffffff;font-family:GeosansLight;-inkscape-font-specification:GeosansLight Medium"
           id="path3025" />
        <path
           d="m 391.59062,344.43757 c -10e-6,-1.72731 -0.66318,-3.09991 -1.9895,-4.11781 -0.33931,-0.24675 -0.84825,-0.52435 -1.52683,-0.83281 -0.6786,-0.33929 -1.54226,-0.694 -2.59098,-1.06416 -1.20296,-0.40097 -2.08205,-0.81738 -2.63725,-1.24922 -0.67859,-0.5552 -1.01789,-1.26463 -1.01789,-2.1283 0,-1.94322 1.11042,-2.91484 3.33127,-2.91486 1.63477,2e-5 2.97653,0.52438 4.02527,1.5731 l 1.38803,-1.20296 c -1.48058,-1.48054 -3.28501,-2.22082 -5.4133,-2.22084 -1.54226,2e-5 -2.79148,0.47812 -3.74767,1.43429 -0.98705,0.92537 -1.48057,2.03579 -1.48056,3.33127 -1e-5,1.51141 0.49351,2.6681 1.48056,3.47006 0.67858,0.55522 1.789,1.11043 3.33126,1.66563 0.83281,0.30846 1.52682,0.58606 2.08204,0.83282 0.58604,0.21592 1.03329,0.41641 1.34176,0.60147 1.01787,0.80198 1.52681,1.74275 1.52682,2.82232 -10e-6,2.46761 -1.44972,3.70141 -4.34914,3.7014 -1.32635,1e-5 -2.37508,-0.29302 -3.1462,-0.87908 -0.74028,-0.52436 -1.3726,-1.26464 -1.89696,-2.22084 l -1.61937,0.97162 c 1.48056,2.68352 3.7014,4.02527 6.66253,4.02527 1.72731,0 3.20787,-0.52436 4.44168,-1.57309 1.20294,-1.01789 1.80442,-2.35964 1.80443,-4.02528"
           style="font-variant:normal;font-weight:bold;font-stretch:normal;fill:#ffffff;font-family:GeosansLight;-inkscape-font-specification:GeosansLight Medium"
           id="path3027" />
        <path
           d="m 411.16541,349.6658 -11.243,-11.24301 8.65202,-8.60575 -2.68351,0 -8.28189,8.23561 0,-22.62481 -1.89697,0 0,34.23796 1.89697,0 0,-8.88336 1.06415,-1.06415 9.99379,9.94751 2.49844,0"
           style="font-variant:normal;font-weight:bold;font-stretch:normal;fill:#ffffff;font-family:GeosansLight;-inkscape-font-specification:GeosansLight Medium"
           id="path3029" />
        <path
           d="m 420.05527,332.45428 0,-1.89696 -4.44168,0 0,-8.37443 -1.89697,0 0,8.37443 -2.59098,0 0,1.89696 2.59098,0 0,17.21152 1.89697,0 0,-17.21152 4.44168,0"
           style="font-variant:normal;font-weight:bold;font-stretch:normal;fill:#ffffff;font-family:GeosansLight;-inkscape-font-specification:GeosansLight Medium"
           id="path3031" />
        <path
           d="m 440.3284,340.13469 c -2e-5,-2.77604 -0.95622,-5.12025 -2.86859,-7.03266 -1.91241,-1.91237 -4.2412,-2.86857 -6.9864,-2.86859 -2.77606,2e-5 -5.10485,0.97164 -6.98639,2.91486 -1.91239,1.9124 -2.86859,4.2412 -2.86859,6.98639 0,2.77606 0.9562,5.12028 2.86859,7.03267 1.88154,1.88154 4.21033,2.82231 6.98639,2.82231 2.77604,0 5.12026,-0.95619 7.03267,-2.86858 1.88152,-1.88154 2.8223,-4.21034 2.82232,-6.9864 m -1.8507,0 c -2e-5,2.22085 -0.78657,4.11782 -2.35965,5.69091 -1.54226,1.54225 -3.42381,2.31338 -5.64464,2.31337 -2.19,1e-5 -4.07154,-0.78654 -5.64463,-2.35964 -1.5731,-1.57309 -2.35965,-3.45463 -2.35965,-5.64464 0,-2.15914 0.80197,-4.04068 2.40591,-5.64463 1.57309,-1.60393 3.43921,-2.4059 5.59837,-2.40592 2.25168,2e-5 4.14864,0.78657 5.69091,2.35965 1.54223,1.54226 2.31336,3.43923 2.31338,5.6909"
           style="font-variant:normal;font-weight:bold;font-stretch:normal;fill:#ffffff;font-family:GeosansLight;-inkscape-font-specification:GeosansLight Medium"
           id="path3033" />
        <path
           d="m 464.62102,340.13469 c -3e-5,-2.77604 -0.95622,-5.12025 -2.86859,-7.03266 -1.88156,-1.88153 -4.21036,-2.8223 -6.9864,-2.82232 -3.26958,2e-5 -5.8914,1.29551 -7.86548,3.88647 l 0,-3.60886 -1.89696,0 0,28.08438 1.89696,0 0,-12.5385 c 2.06661,2.59099 4.68844,3.88647 7.86548,3.88647 2.77604,0 5.12026,-0.95619 7.03267,-2.86858 1.88152,-1.88154 2.82229,-4.21034 2.82232,-6.9864 m -1.85071,0 c -2e-5,2.22085 -0.78656,4.11782 -2.35964,5.69091 -1.54227,1.54225 -3.42381,2.31338 -5.64464,2.31337 -2.19,1e-5 -4.07155,-0.78654 -5.64463,-2.35964 -1.57311,-1.57309 -2.35965,-3.45463 -2.35965,-5.64464 0,-2.22083 0.78654,-4.11779 2.35965,-5.6909 1.54224,-1.54224 3.42378,-2.31336 5.64463,-2.31338 2.18998,2e-5 4.07153,0.78657 5.64464,2.35965 1.57308,1.5731 2.35962,3.45465 2.35964,5.64463"
           style="font-variant:normal;font-weight:bold;font-stretch:normal;fill:#ffffff;font-family:GeosansLight;-inkscape-font-specification:GeosansLight Medium"
           id="path3035" />
        <path
           d="m 496.80153,349.6658 0,-1.89697 -13.97279,0 0,-15.17574 13.97279,0 0,-2.03577 -13.97279,0 0,-12.02956 13.97279,0 0,-1.89697 -15.86976,0 0,33.03501 15.86976,0"
           style="fill:#ffffff"
           id="path3037" />
        <path
           d="m 517.32839,349.6658 0,-11.61315 c -2e-5,-2.43674 -0.63234,-4.3337 -1.89697,-5.6909 -1.26466,-1.35716 -3.08451,-2.03575 -5.45956,-2.03577 -2.80691,2e-5 -4.64218,0.84825 -5.50584,2.54471 l 0,-2.31337 -1.89697,0 0,19.10848 1.89697,0 0,-11.61315 c 0,-1.81984 0.47809,-3.25413 1.43429,-4.30288 0.92535,-1.04871 2.28253,-1.57307 4.07155,-1.57309 3.63969,2e-5 5.45955,2.02036 5.45956,6.06104 l 0,11.42808 1.89697,0"
           style="font-variant:normal;font-weight:bold;font-stretch:normal;fill:#ffffff;font-family:GeosansLight;-inkscape-font-specification:GeosansLight Medium"
           id="path3039" />
        <path
           d="m 536.92849,330.55732 -2.1283,0 -6.9864,15.22201 -6.94013,-15.22201 -2.03577,0 9.02217,19.9413 9.06843,-19.9413"
           style="font-variant:normal;font-weight:bold;font-stretch:normal;fill:#ffffff;font-family:GeosansLight;-inkscape-font-specification:GeosansLight Medium"
           id="path3041" />
        <path
           d="m 543.61632,325.60669 c -0.24677,-1.01786 -0.75571,-1.5268 -1.52683,-1.52683 -1.01789,0.1851 -1.52683,0.69404 -1.52683,1.52683 0.0308,0.4627 0.18507,0.83284 0.46268,1.11042 0.37013,0.27763 0.72485,0.41643 1.06415,0.41641 1.01788,2e-5 1.52682,-0.50892 1.52683,-1.52683 m -0.60148,24.05911 0,-19.10848 -1.89697,0 0,19.10848 1.89697,0"
           style="font-variant:normal;font-weight:bold;font-stretch:normal;fill:#ffffff;font-family:GeosansLight;-inkscape-font-specification:GeosansLight Medium"
           id="path3043" />
        <path
           d="m 557.06931,331.80654 c -0.77114,-0.55519 -1.46515,-0.94076 -2.08204,-1.15669 -0.61691,-0.21589 -1.40346,-0.32385 -2.35964,-0.32387 -0.77114,2e-5 -1.48057,0.29304 -2.12831,0.87908 -0.64775,0.58607 -1.17211,1.23382 -1.57309,1.94324 l 0,-2.59098 -1.89697,0 0,19.10848 1.89697,0 0,-12.58476 c -1e-5,-0.49351 0.0925,-1.0333 0.2776,-1.61937 0.21591,-0.58604 0.49352,-1.1104 0.83282,-1.57309 0.33929,-0.49351 0.74027,-0.89449 1.20295,-1.20296 0.46267,-0.33928 0.95619,-0.50892 1.48056,-0.50894 0.61689,2e-5 1.20295,0.10797 1.75817,0.32387 0.5552,0.21593 1.07956,0.50896 1.57309,0.87908 l 1.01789,-1.57309"
           style="font-variant:normal;font-weight:bold;font-stretch:normal;fill:#ffffff;font-family:GeosansLight;-inkscape-font-specification:GeosansLight Medium"
           id="path3045" />
        <path
           d="m 576.78143,340.13469 c -2e-5,-2.77604 -0.95622,-5.12025 -2.86859,-7.03266 -1.9124,-1.91237 -4.2412,-2.86857 -6.98639,-2.86859 -2.77606,2e-5 -5.10486,0.97164 -6.9864,2.91486 -1.91239,1.9124 -2.86859,4.2412 -2.86858,6.98639 -10e-6,2.77606 0.95619,5.12028 2.86858,7.03267 1.88154,1.88154 4.21034,2.82231 6.9864,2.82231 2.77603,0 5.12025,-0.95619 7.03266,-2.86858 1.88153,-1.88154 2.8223,-4.21034 2.82232,-6.9864 m -1.8507,0 c -2e-5,2.22085 -0.78657,4.11782 -2.35964,5.69091 -1.54227,1.54225 -3.42381,2.31338 -5.64464,2.31337 -2.19001,1e-5 -4.07155,-0.78654 -5.64464,-2.35964 -1.5731,-1.57309 -2.35965,-3.45463 -2.35964,-5.64464 -1e-5,-2.15914 0.80196,-4.04068 2.40591,-5.64463 1.57309,-1.60393 3.43921,-2.4059 5.59837,-2.40592 2.25167,2e-5 4.14864,0.78657 5.6909,2.35965 1.54223,1.54226 2.31336,3.43923 2.31338,5.6909"
           style="font-variant:normal;font-weight:bold;font-stretch:normal;fill:#ffffff;font-family:GeosansLight;-inkscape-font-specification:GeosansLight Medium"
           id="path3047" />
        <path
           d="m 596.30849,349.6658 0,-11.61315 c -10e-6,-2.43674 -0.63234,-4.3337 -1.89696,-5.6909 -1.26466,-1.35716 -3.08452,-2.03575 -5.45957,-2.03577 -2.80691,2e-5 -4.64218,0.84825 -5.50584,2.54471 l 0,-2.31337 -1.89696,0 0,19.10848 1.89696,0 0,-11.61315 c 0,-1.81984 0.4781,-3.25413 1.4343,-4.30288 0.92534,-1.04871 2.28252,-1.57307 4.07154,-1.57309 3.6397,2e-5 5.45955,2.02036 5.45957,6.06104 l 0,11.42808 1.89696,0"
           style="font-variant:normal;font-weight:bold;font-stretch:normal;fill:#ffffff;font-family:GeosansLight;-inkscape-font-specification:GeosansLight Medium"
           id="path3049" />
        <path
           d="m 623.98806,349.6658 0,-13.18624 c -2e-5,-1.94322 -0.58608,-3.47005 -1.75816,-4.58049 -1.17214,-1.07955 -2.71439,-1.61934 -4.62676,-1.61936 -2.49846,2e-5 -4.30289,1.00248 -5.4133,3.00739 -1.17212,-2.00491 -2.99197,-3.00737 -5.45956,-3.00739 -2.06663,2e-5 -3.56261,0.72488 -4.48795,2.17457 l 0,-1.89696 -1.89697,0 0,19.10848 1.89697,0 0,-13.18624 c -1e-5,-1.32632 0.43182,-2.37505 1.29549,-3.14619 0.86365,-0.80196 1.9278,-1.20294 3.19246,-1.20296 1.23379,2e-5 2.29794,0.41643 3.19246,1.24922 0.86364,0.77115 1.29547,1.80445 1.29549,3.09993 l 0,13.18624 1.89696,0 0,-13.18624 c -10e-6,-2.89942 1.49597,-4.34913 4.48795,-4.34915 1.4497,2e-5 2.56012,0.43185 3.33127,1.29549 0.7711,0.86368 1.15666,1.88156 1.15668,3.05366 l 0,13.18624 1.89697,0"
           style="font-variant:normal;font-weight:bold;font-stretch:normal;fill:#ffffff;font-family:GeosansLight;-inkscape-font-specification:GeosansLight Medium"
           id="path3051" />
        <path
           d="m 648.35153,339.71829 c -2e-5,-2.80689 -0.94079,-5.08942 -2.82232,-6.8476 -1.85072,-1.75815 -4.19494,-2.63723 -7.03266,-2.63725 -2.8686,2e-5 -5.24366,0.94079 -7.1252,2.82232 -1.8507,1.85072 -2.77605,4.21036 -2.77605,7.07893 0,2.83775 0.94077,5.19739 2.82232,7.07893 1.85069,1.88155 4.21033,2.82232 7.07893,2.82232 1.20294,0 2.28251,-0.15422 3.23872,-0.46267 2.49843,-0.80197 4.34913,-2.34422 5.55211,-4.62676 l -1.7119,-0.78654 c -1.04875,1.69648 -2.23628,2.82232 -3.5626,3.37753 -1.04875,0.43183 -2.22086,0.64774 -3.51633,0.64774 -2.5293,0 -4.5188,-0.77112 -5.96851,-2.31337 -1.38803,-1.51141 -2.08205,-3.5626 -2.08204,-6.15358 l 17.90553,0 m -2.12831,-1.80444 -15.49962,0 c 1.2338,-3.88645 3.82478,-5.82969 7.77295,-5.82971 1.88153,2e-5 3.54716,0.52439 4.99689,1.5731 1.51139,1.07959 2.42131,2.49846 2.72978,4.25661"
           style="font-variant:normal;font-weight:bold;font-stretch:normal;fill:#ffffff;font-family:GeosansLight;-inkscape-font-specification:GeosansLight Medium"
           id="path3053" />
        <path
           d="m 667.51711,349.6658 0,-11.61315 c -2e-5,-2.43674 -0.63234,-4.3337 -1.89697,-5.6909 -1.26466,-1.35716 -3.08451,-2.03575 -5.45956,-2.03577 -2.80691,2e-5 -4.64218,0.84825 -5.50584,2.54471 l 0,-2.31337 -1.89697,0 0,19.10848 1.89697,0 0,-11.61315 c 0,-1.81984 0.47809,-3.25413 1.43429,-4.30288 0.92535,-1.04871 2.28253,-1.57307 4.07155,-1.57309 3.63969,2e-5 5.45955,2.02036 5.45956,6.06104 l 0,11.42808 1.89697,0"
           style="font-variant:normal;font-weight:bold;font-stretch:normal;fill:#ffffff;font-family:GeosansLight;-inkscape-font-specification:GeosansLight Medium"
           id="path3055" />
        <path
           d="m 680.94264,332.45428 0,-1.89696 -4.44168,0 0,-8.37443 -1.89697,0 0,8.37443 -2.59098,0 0,1.89696 2.59098,0 0,17.21152 1.89697,0 0,-17.21152 4.44168,0"
           style="font-variant:normal;font-weight:bold;font-stretch:normal;fill:#ffffff;font-family:GeosansLight;-inkscape-font-specification:GeosansLight Medium"
           id="path3057" />
      </g>
      <g
         id="g2851"
         transform="matrix(0.37793778,0,0,0.37739371,66.914137,288.85692)"
         inkscape:export-xdpi="97.826088"
         inkscape:export-ydpi="97.826088"
         style="fill:#ffffff;stroke:#ffffff">
        <g
           id="g2844"
           transform="matrix(0.99522481,0,0,0.9966596,2394.1877,-88.710857)">
          <g
             id="g2841">
            <path
               sodipodi:type="inkscape:offset"
               inkscape:radius="-3.1582844"
               inkscape:original="M 128 2.96875 C 60.095931 2.96875 4.5937489 58.470911 4.59375 126.375 C 4.59375 194.27908 60.095937 249.78124 128 249.78125 C 195.90407 249.78125 251.40625 194.27907 251.40625 126.375 C 251.40625 58.470915 195.90408 2.9687489 128 2.96875 z M 128 39.3125 C 176.16746 39.312499 215.0625 78.207524 215.0625 126.375 C 215.0625 174.54246 176.16747 213.4375 128 213.4375 C 79.832538 213.43749 40.9375 174.54246 40.9375 126.375 C 40.937499 78.207521 79.832543 39.3125 128 39.3125 z "
               style="fill:none;stroke:#ffffff;stroke-width:3.32775044;stroke-linecap:round;stroke-linejoin:round;stroke-miterlimit:4;stroke-opacity:1;stroke-dasharray:none;stroke-dashoffset:0;marker:none;visibility:visible;display:inline;overflow:visible"
               id="path3709"
               d="m 128,6.125 c -66.183096,0 -120.2500011,54.066884 -120.25,120.25 0,66.18311 54.06691,120.24999 120.25,120.25 66.1831,0 120.25,-54.0669 120.25,-120.25 C 248.25,60.191888 194.18311,6.1249989 128,6.125 z m 0,30.03125 c 49.86766,-10e-7 90.21875,40.351073 90.21875,90.21875 0,49.86766 -40.35108,90.21875 -90.21875,90.21875 C 78.132337,216.59374 37.78125,176.24266 37.78125,126.375 37.781249,76.50732 78.132342,36.15625 128,36.15625 z"
               transform="matrix(0.9015099,0,0,0.9015099,-2398.6274,103.16714)" />
          </g>
        </g>
        <path
           d="M 123.28125,19.5625 C 104.40195,19.34387 85.474532,24.224036 68.125,34.21875 16.581728,63.911797 -1.1931755,130.23774 28.5,181.78125 c 29.582528,51.35144 95.41508,69.16699 146.875,39.9375 0.85496,-0.48395 1.48895,-1.32858 1.75,-2.28125 0.26258,-0.95824 0.14689,-1.95717 -0.34375,-2.8125 L 167.125,199.8125 c -1.07573,-1.87927 -3.38005,-2.67869 -5.03125,-1.75 -38.97038,21.93778 -88.390498,8.55159 -110.40625,-29.75 C 29.283556,129.33556 42.279278,79.303942 81.625,57.4375 108.19396,42.671767 137.08426,43.302376 163.46875,58 a 2.783114,2.783114 0 0 1 0.0937,0.0625 c 0.23787,0.142853 0.49497,0.263248 0.625,0.3125 a 2.783114,2.783114 0 0 1 0.0312,0 c 0.42731,0.172909 0.91918,0.281111 1.40625,0.28125 l 0.0312,0 c 1.30305,0.0018 2.47234,-0.652182 3.15625,-1.78125 L 178.875,40.25 c 1.07116,-1.778126 0.50194,-4.020018 -1.28125,-5.09375 -16.96906,-10.173442 -35.6308,-15.377409 -54.3125,-15.59375 z"
           id="path2839"
           style="fill:#ffffff;fill-opacity:1;stroke:#ffffff;stroke-width:2;stroke-linecap:butt;stroke-linejoin:round;stroke-miterlimit:4;stroke-opacity:1;stroke-dashoffset:0"
           inkscape:original="M 123.3125 16.78125 C 103.93127 16.556807 84.51823 21.576583 66.75 31.8125 C 13.893111 62.262295 -4.3551141 130.30096 26.09375 183.15625 C 56.429177 235.81463 123.98065 254.09825 176.75 224.125 C 178.25303 223.27421 179.35606 221.85321 179.8125 220.1875 C 180.26894 218.52178 180.04687 216.74814 179.1875 215.25 L 169.53125 198.4375 C 167.76068 195.34436 163.82518 193.87784 160.71875 195.625 C 123.04387 216.8335 75.352853 203.92272 54.09375 166.9375 C 32.432528 129.2527 44.969344 80.993225 82.96875 59.875 C 108.77 45.535922 136.4546 46.137664 162.125 60.4375 C 162.45664 60.636666 162.82574 60.831724 163.1875 60.96875 C 163.96013 61.281391 164.79151 61.437262 165.625 61.4375 L 165.65625 61.4375 C 167.92872 61.4407 170.01015 60.256186 171.1875 58.3125 L 181.25 41.6875 C 183.09921 38.617799 182.10131 34.629856 179.03125 32.78125 C 161.64946 22.360367 142.49085 17.003342 123.3125 16.78125 z "
           inkscape:radius="-2.7828357"
           sodipodi:type="inkscape:offset" />
      </g>
      <text
         xml:space="preserve"
         style="font-size:46.2675209px;font-style:normal;font-weight:normal;fill:#ffffff;fill-opacity:1;stroke:none;font-family:Bitstream Vera Sans"
         x="173.74207"
         y="217.42143"
         id="text3002"><tspan
           sodipodi:role="line"
           id="tspan3004"
           x="173.74207"
           y="217.42143"
           style="font-size:46.2675209px;font-style:normal;font-variant:normal;font-weight:bold;font-stretch:normal;fill:#ffffff;font-family:GeosansLight;-inkscape-font-specification:GeosansLight Medium"><tspan
   style="font-size:46.2675209px;fill:#ffffff"
   id="tspan3006">C</tspan>ream <tspan
   style="font-size:46.2675209px;fill:#ffffff"
   id="tspan3008">D</tspan>esktop <tspan
   style="font-size:46.2675209px;fill:#ffffff"
   id="tspan3010">E</tspan>nvironment</tspan></text>
      <path
         style="fill:none;stroke:#ffffff;stroke-width:1px;stroke-linecap:butt;stroke-linejoin:miter;stroke-opacity:1"
         d="m 98.994949,-149.50768 28.284271,30.30458 0,0 -1.01015,-30.30458 2.0203,31.31473 -24.24366,-1.01015"
         id="path3059"
         transform="translate(36.285722,287.03478)" />
      <text
         id="text3061"
         y="136.71596"
         x="-70.194084"
         style="font-size:30.09645653px;font-style:normal;font-weight:normal;fill:#ffffff;fill-opacity:1;stroke:none;font-family:Bitstream Vera Sans"
         xml:space="preserve"><tspan
           style="font-size:30.09645653px;font-style:normal;font-variant:normal;font-weight:bold;font-stretch:normal;fill:#ffffff;font-family:GeosansLight;-inkscape-font-specification:GeosansLight Medium"
           y="136.71596"
           x="-70.194084"
           id="tspan3063"
           sodipodi:role="line">Schriftzug als Text</tspan></text>
      <path
         id="path3071"
         d="m 708.86081,440.2704 -28.28427,-30.30458 0,0 1.01015,30.30458 -2.0203,-31.31474 24.24366,1.01016"
         style="fill:none;stroke:#ffffff;stroke-width:1px;stroke-linecap:butt;stroke-linejoin:miter;stroke-opacity:1" />
      <text
         xml:space="preserve"
         style="font-size:30.09645653px;font-style:normal;font-weight:normal;fill:#ffffff;fill-opacity:1;stroke:none;font-family:Bitstream Vera Sans"
         x="706.94879"
         y="476.71597"
         id="text3073"><tspan
           sodipodi:role="line"
           id="tspan3075"
           x="706.94879"
           y="476.71597"
           style="font-size:30.09645653px;font-style:normal;font-variant:normal;font-weight:bold;font-stretch:normal;fill:#ffffff;font-family:GeosansLight;-inkscape-font-specification:GeosansLight Medium">Schriftzug als Pfad</tspan></text>
    </g>
  </g>
</svg>
